<?xml version="1.0" encoding="UTF-8" standalone="no"?>
<!DOCTYPE svg PUBLIC "-//W3C//DTD SVG 1.1//EN" "http://www.w3.org/Graphics/SVG/1.1/DTD/svg11.dtd">
<svg width="100%" height="100%" viewBox="0 0 1600 1000" version="1.1" xmlns="http://www.w3.org/2000/svg" xmlns:xlink="http://www.w3.org/1999/xlink" xml:space="preserve" xmlns:serif="http://www.serif.com/" style="fill-rule:evenodd;clip-rule:evenodd;stroke-linecap:round;stroke-linejoin:round;stroke-miterlimit:1.5;">
    <g transform="matrix(2,0,0,2,0,0)">
        <g id="tape">
            <path id="tape-body" serif:id="tape body" d="M783.001,26.268C783.001,23.616 781.948,21.073 780.072,19.197C778.197,17.322 775.653,16.268 773.001,16.268C689.307,16.268 106.443,16.268 22.749,16.268C20.097,16.268 17.553,17.322 15.678,19.197C13.803,21.073 12.749,23.616 12.749,26.268C12.749,87.7 12.749,413.362 12.749,474.794C12.749,477.446 13.803,479.99 15.678,481.865C17.553,483.741 20.097,484.794 22.749,484.794C106.443,484.794 689.307,484.794 773.001,484.794C775.653,484.794 778.197,483.741 780.072,481.865C781.948,479.99 783.001,477.446 783.001,474.794C783.001,413.362 783.001,87.7 783.001,26.268ZM630.978,455.47C635.962,455.47 640.008,459.516 640.008,464.5C640.008,469.484 635.962,473.531 630.978,473.531C625.994,473.531 621.947,469.484 621.947,464.5C621.947,459.516 625.994,455.47 630.978,455.47ZM161.39,455.47C166.374,455.47 170.421,459.516 170.421,464.5C170.421,469.484 166.374,473.531 161.39,473.531C156.406,473.531 152.359,469.484 152.359,464.5C152.359,459.516 156.406,455.47 161.39,455.47ZM583.317,446.439C588.302,446.439 592.348,450.486 592.348,455.47C592.348,460.454 588.302,464.5 583.317,464.5C578.333,464.5 574.287,460.454 574.287,455.47C574.287,450.486 578.333,446.439 583.317,446.439ZM209.05,446.439C214.034,446.439 218.081,450.486 218.081,455.47C218.081,460.454 214.034,464.5 209.05,464.5C204.066,464.5 200.02,460.454 200.02,455.47C200.02,450.486 204.066,446.439 209.05,446.439ZM607.703,222.908C607.703,189.192 580.329,161.819 546.614,161.819L245.95,161.819C212.234,161.819 184.861,189.192 184.861,222.908C184.861,256.624 212.234,283.997 245.95,283.997L546.614,283.997C580.329,283.997 607.703,256.624 607.703,222.908Z" style="fill:rgb(213,108,49);"/>
            <path d="M685.349,484.794L108.277,484.794C108.277,484.794 119.99,422.525 124.26,399.828C125.149,395.101 129.278,391.677 134.088,391.677C196.875,391.677 596.62,391.677 659.509,391.677C664.336,391.677 668.478,395.113 669.371,399.856C673.645,422.577 685.349,484.794 685.349,484.794ZM630.978,455.47C635.962,455.47 640.008,459.516 640.008,464.5C640.008,469.484 635.962,473.531 630.978,473.531C625.994,473.531 621.947,469.484 621.947,464.5C621.947,459.516 625.994,455.47 630.978,455.47ZM161.39,455.47C166.374,455.47 170.421,459.516 170.421,464.5C170.421,469.484 166.374,473.531 161.39,473.531C156.406,473.531 152.359,469.484 152.359,464.5C152.359,459.516 156.406,455.47 161.39,455.47ZM583.317,446.439C588.302,446.439 592.348,450.486 592.348,455.47C592.348,460.454 588.302,464.5 583.317,464.5C578.333,464.5 574.287,460.454 574.287,455.47C574.287,450.486 578.333,446.439 583.317,446.439ZM209.05,446.439C214.034,446.439 218.081,450.486 218.081,455.47C218.081,460.454 214.034,464.5 209.05,464.5C204.066,464.5 200.02,460.454 200.02,455.47C200.02,450.486 204.066,446.439 209.05,446.439Z" style="fill:rgb(213,108,49);stroke:rgb(158,158,158);stroke-width:1.46px;"/>
            <g id="audio-tape" serif:id="audio tape">
            </g>
            <path id="left" d="M247.344,84.522C323.722,84.522 385.731,146.531 385.731,222.908C385.731,299.286 323.722,361.295 247.344,361.295C170.967,361.295 108.958,299.286 108.958,222.908C108.958,146.531 170.967,84.522 247.344,84.522ZM254.913,174.192L284.077,191.03L279.804,198.431L281.984,202.222L284.077,205.612L292.496,205.612L292.496,239.288L284.077,239.288L281.984,242.437L279.804,246.469L284.077,253.871L254.913,270.709L250.531,263.119L242.457,263.119L238.075,270.709L208.91,253.871L213.45,246.008L211.997,242.437L210.302,239.288L200.491,239.288L200.491,205.612L210.302,205.612L211.997,202.222L213.45,198.431L208.91,191.03L238.075,174.192L242.457,181.782L250.531,181.782L254.913,174.192Z" style="fill:rgb(56,56,57);"/>
            <clipPath id="_clip1">
                <path id="left1" serif:id="left" d="M247.344,84.522C323.722,84.522 385.731,146.531 385.731,222.908C385.731,299.286 323.722,361.295 247.344,361.295C170.967,361.295 108.958,299.286 108.958,222.908C108.958,146.531 170.967,84.522 247.344,84.522ZM254.913,174.192L284.077,191.03L279.804,198.431L281.984,202.222L284.077,205.612L292.496,205.612L292.496,239.288L284.077,239.288L281.984,242.437L279.804,246.469L284.077,253.871L254.913,270.709L250.531,263.119L242.457,263.119L238.075,270.709L208.91,253.871L213.45,246.008L211.997,242.437L210.302,239.288L200.491,239.288L200.491,205.612L210.302,205.612L211.997,202.222L213.45,198.431L208.91,191.03L238.075,174.192L242.457,181.782L250.531,181.782L254.913,174.192Z"/>
            </clipPath>
            <g clip-path="url(#_clip1)">
                <g transform="matrix(0.938677,0,0,0.938677,5.54196,-0.442789)">
                    <circle cx="256.693" cy="237.455" r="84.568" style="fill:rgb(235,235,235);stroke:rgb(56,56,57);stroke-width:3.2px;"/>
                </g>
            </g>
            <path id="right" d="M546.082,116.693C604.451,116.693 651.84,164.081 651.84,222.45C651.84,280.819 604.451,328.208 546.082,328.208C487.713,328.208 440.325,280.819 440.325,222.45C440.325,164.081 487.713,116.693 546.082,116.693ZM554.765,174.192L583.929,191.03L579.656,198.431L581.835,202.222L583.929,205.612L592.348,205.612L592.348,239.288L583.929,239.288L581.835,242.437L579.656,246.469L583.929,253.871L554.765,270.709L550.382,263.119L542.309,263.119L537.926,270.709L508.762,253.871L513.302,246.008L511.849,242.437L510.154,239.288L500.343,239.288L500.343,205.612L510.154,205.612L511.849,202.222L513.302,198.431L508.762,191.03L537.926,174.192L542.309,181.782L550.382,181.782L554.765,174.192Z" style="fill:rgb(56,56,57);"/>
            <clipPath id="_clip2">
                <path id="right1" serif:id="right" d="M546.082,116.693C604.451,116.693 651.84,164.081 651.84,222.45C651.84,280.819 604.451,328.208 546.082,328.208C487.713,328.208 440.325,280.819 440.325,222.45C440.325,164.081 487.713,116.693 546.082,116.693ZM554.765,174.192L583.929,191.03L579.656,198.431L581.835,202.222L583.929,205.612L592.348,205.612L592.348,239.288L583.929,239.288L581.835,242.437L579.656,246.469L583.929,253.871L554.765,270.709L550.382,263.119L542.309,263.119L537.926,270.709L508.762,253.871L513.302,246.008L511.849,242.437L510.154,239.288L500.343,239.288L500.343,205.612L510.154,205.612L511.849,202.222L513.302,198.431L508.762,191.03L537.926,174.192L542.309,181.782L550.382,181.782L554.765,174.192Z"/>
            </clipPath>
            <g clip-path="url(#_clip2)">
                <g transform="matrix(0.938677,0,0,0.938677,305.13,-0.442789)">
                    <circle cx="256.693" cy="237.455" r="84.568" style="fill:rgb(235,235,235);stroke:rgb(56,56,57);stroke-width:3.2px;"/>
                </g>
            </g>
            <path id="label" d="M749.004,54.919C749.004,51.178 745.967,48.141 742.226,48.141L48.212,48.141C44.471,48.141 41.434,51.178 41.434,54.919L41.434,380.274C41.434,384.015 44.471,387.052 48.212,387.052L742.226,387.052C745.967,387.052 749.004,384.015 749.004,380.274L749.004,54.919ZM607.703,222.908C607.703,189.192 580.329,161.819 546.614,161.819L245.95,161.819C212.234,161.819 184.861,189.192 184.861,222.908C184.861,256.624 212.234,283.997 245.95,283.997L546.614,283.997C580.329,283.997 607.703,256.624 607.703,222.908Z" style="fill:rgb(68,89,147);"/>
            <path id="Center-tape-section" serif:id="Center tape section" d="M607.703,222.908C607.703,189.192 580.329,161.819 546.614,161.819L245.95,161.819C212.234,161.819 184.861,189.192 184.861,222.908C184.861,256.624 212.234,283.997 245.95,283.997L546.614,283.997C580.329,283.997 607.703,256.624 607.703,222.908ZM474.701,174.192L317.463,174.192L317.463,270.709L474.701,270.709L474.701,174.192ZM554.765,174.192L583.929,191.03L579.656,198.431L581.835,202.222L583.929,205.612L592.348,205.612L592.348,239.288L583.929,239.288L581.835,242.437L579.656,246.469L583.929,253.871L554.765,270.709L550.382,263.119L542.309,263.119L537.926,270.709L508.762,253.871L513.302,246.008L511.849,242.437L510.154,239.288L500.343,239.288L500.343,205.612L510.154,205.612L511.849,202.222L513.302,198.431L508.762,191.03L537.926,174.192L542.309,181.782L550.382,181.782L554.765,174.192ZM254.913,174.192L284.077,191.03L279.804,198.431L281.984,202.222L284.077,205.612L292.496,205.612L292.496,239.288L284.077,239.288L281.984,242.437L279.804,246.469L284.077,253.871L254.913,270.709L250.531,263.119L242.457,263.119L238.075,270.709L208.91,253.871L213.45,246.008L211.997,242.437L210.302,239.288L200.491,239.288L200.491,205.612L210.302,205.612L211.997,202.222L213.45,198.431L208.91,191.03L238.075,174.192L242.457,181.782L250.531,181.782L254.913,174.192Z" style="fill:rgb(209,106,53);"/>
            <path id="top-visible-wheels" serif:id="top visible wheels" d="M246.494,168.938C276.281,168.938 300.465,193.121 300.465,222.908C300.465,252.696 276.281,276.879 246.494,276.879C216.707,276.879 192.523,252.696 192.523,222.908C192.523,193.121 216.707,168.938 246.494,168.938ZM546.082,168.938C575.87,168.938 600.053,193.121 600.053,222.908C600.053,252.696 575.87,276.879 546.082,276.879C516.295,276.879 492.112,252.696 492.112,222.908C492.112,193.121 516.295,168.938 546.082,168.938Z" style="fill:none;stroke:rgb(254,254,254);stroke-width:3px;"/>
            <g id="Screws">
                <g id="Left-Screw" serif:id="Left Screw" transform="matrix(1.8336,0,0,1.8336,-15.4202,-398.799)">
                    <circle cx="23.064" cy="474.696" r="4.352" style="fill:rgb(56,56,57);"/>
                    <clipPath id="_clip3">
                        <circle cx="23.064" cy="474.696" r="4.352"/>
                    </clipPath>
                    <g clip-path="url(#_clip3)">
                        <g transform="matrix(1.7027,0,0,1.7027,-17.1824,-334.742)">
                            <path d="M24.481,474.118L24.903,474.54L24.059,475.384L24.903,476.228L24.481,476.651L23.637,475.806L22.792,476.651L22.37,476.228L23.215,475.384L22.37,474.54L22.792,474.118L23.637,474.962L24.481,474.118Z"/>
                        </g>
                    </g>
                </g>
                <g id="Right-Screw" serif:id="Right Screw" transform="matrix(1.8336,0,0,1.8336,726.956,-398.799)">
                    <circle cx="23.064" cy="474.696" r="4.352" style="fill:rgb(56,56,57);"/>
                    <clipPath id="_clip4">
                        <circle cx="23.064" cy="474.696" r="4.352"/>
                    </clipPath>
                    <g clip-path="url(#_clip4)">
                        <g transform="matrix(1.7027,0,0,1.7027,-17.1824,-334.742)">
                            <path d="M24.481,474.118L24.903,474.54L24.059,475.384L24.903,476.228L24.481,476.651L23.637,475.806L22.792,476.651L22.37,476.228L23.215,475.384L22.37,474.54L22.792,474.118L23.637,474.962L24.481,474.118Z"/>
                        </g>
                    </g>
                </g>
                <g id="Center-Screw" serif:id="Center Screw" transform="matrix(1.8336,0,0,1.8336,357.168,-458.371)">
                    <circle cx="23.064" cy="474.696" r="4.352" style="fill:rgb(56,56,57);"/>
                    <clipPath id="_clip5">
                        <circle cx="23.064" cy="474.696" r="4.352"/>
                    </clipPath>
                    <g clip-path="url(#_clip5)">
                        <g transform="matrix(1.7027,0,0,1.7027,-17.1824,-334.742)">
                            <path d="M24.481,474.118L24.903,474.54L24.059,475.384L24.903,476.228L24.481,476.651L23.637,475.806L22.792,476.651L22.37,476.228L23.215,475.384L22.37,474.54L22.792,474.118L23.637,474.962L24.481,474.118Z"/>
                        </g>
                    </g>
                </g>
            </g>
        </g>
    </g>
</svg>
